<?xml version="1.0" encoding="UTF-8"?>
<svg xmlns="http://www.w3.org/2000/svg" xmlns:xlink="http://www.w3.org/1999/xlink" viewBox="0 0 96 96" width="96px" height="96px">
<defs>
<linearGradient id="linear0" gradientUnits="userSpaceOnUse" x1="69.875" y1="24.211691" x2="69.875" y2="40.401192" gradientTransform="matrix(0.55814,0,0,0.55814,0,0)">
<stop offset="0" style="stop-color:rgb(54.11765%,70.588237%,100%);stop-opacity:1;"/>
<stop offset="1" style="stop-color:rgb(89.411765%,57.254905%,100%);stop-opacity:1;"/>
</linearGradient>
<linearGradient id="linear1" gradientUnits="userSpaceOnUse" x1="32.25" y1="94.272133" x2="32.25" y2="110.461632" gradientTransform="matrix(0.55814,0,0,0.55814,0,0)">
<stop offset="0" style="stop-color:rgb(54.11765%,70.588237%,100%);stop-opacity:1;"/>
<stop offset="1" style="stop-color:rgb(89.411765%,57.254905%,100%);stop-opacity:1;"/>
</linearGradient>
<linearGradient id="linear2" gradientUnits="userSpaceOnUse" x1="102.125" y1="132.211563" x2="102.125" y2="147.893127" gradientTransform="matrix(0.55814,0,0,0.55814,0,0)">
<stop offset="0" style="stop-color:rgb(54.11765%,70.588237%,100%);stop-opacity:1;"/>
<stop offset="1" style="stop-color:rgb(89.411765%,57.254905%,100%);stop-opacity:1;"/>
</linearGradient>
<linearGradient id="linear3" gradientUnits="userSpaceOnUse" x1="139.75" y1="61.645882" x2="139.75" y2="78.087997" gradientTransform="matrix(0.55814,0,0,0.55814,0,0)">
<stop offset="0" style="stop-color:rgb(54.11765%,70.588237%,100%);stop-opacity:1;"/>
<stop offset="1" style="stop-color:rgb(89.411765%,57.254905%,100%);stop-opacity:1;"/>
</linearGradient>
<linearGradient id="linear4" gradientUnits="userSpaceOnUse" x1="51.0625" y1="19.484381" x2="51.0625" y2="154.574249" gradientTransform="matrix(0.55814,0,0,0.55814,0,0)">
<stop offset="0" style="stop-color:rgb(10.196079%,42.745098%,100%);stop-opacity:1;"/>
<stop offset="1" style="stop-color:rgb(78.431374%,13.333334%,100%);stop-opacity:1;"/>
</linearGradient>
<linearGradient id="linear5" gradientUnits="userSpaceOnUse" x1="69.875" y1="19.484381" x2="69.875" y2="154.574249" gradientTransform="matrix(0.55814,0,0,0.55814,0,0)">
<stop offset="0" style="stop-color:rgb(10.196079%,42.745098%,100%);stop-opacity:1;"/>
<stop offset="1" style="stop-color:rgb(78.431374%,13.333334%,100%);stop-opacity:1;"/>
</linearGradient>
<linearGradient id="linear6" gradientUnits="userSpaceOnUse" x1="67.1875" y1="19.484381" x2="67.1875" y2="154.574249" gradientTransform="matrix(0.55814,0,0,0.55814,0,0)">
<stop offset="0" style="stop-color:rgb(10.196079%,42.745098%,100%);stop-opacity:1;"/>
<stop offset="1" style="stop-color:rgb(78.431374%,13.333334%,100%);stop-opacity:1;"/>
</linearGradient>
<linearGradient id="linear7" gradientUnits="userSpaceOnUse" x1="32.25" y1="19.484381" x2="32.25" y2="154.574249" gradientTransform="matrix(0.55814,0,0,0.55814,0,0)">
<stop offset="0" style="stop-color:rgb(10.196079%,42.745098%,100%);stop-opacity:1;"/>
<stop offset="1" style="stop-color:rgb(78.431374%,13.333334%,100%);stop-opacity:1;"/>
</linearGradient>
<linearGradient id="linear8" gradientUnits="userSpaceOnUse" x1="51.0625" y1="64.932693" x2="51.0625" y2="69.746002" gradientTransform="matrix(0.55814,0,0,0.55814,0,0)">
<stop offset="0" style="stop-color:rgb(54.11765%,70.588237%,100%);stop-opacity:1;"/>
<stop offset="1" style="stop-color:rgb(89.411765%,57.254905%,100%);stop-opacity:1;"/>
</linearGradient>
<linearGradient id="linear9" gradientUnits="userSpaceOnUse" x1="67.1875" y1="98.765633" x2="67.1875" y2="143.114746" gradientTransform="matrix(0.55814,0,0,0.55814,0,0)">
<stop offset="0" style="stop-color:rgb(54.11765%,70.588237%,100%);stop-opacity:1;"/>
<stop offset="1" style="stop-color:rgb(89.411765%,57.254905%,100%);stop-opacity:1;"/>
</linearGradient>
<linearGradient id="linear10" gradientUnits="userSpaceOnUse" x1="120.9375" y1="19.484381" x2="120.9375" y2="154.574249" gradientTransform="matrix(0.55814,0,0,0.55814,0,0)">
<stop offset="0" style="stop-color:rgb(10.196079%,42.745098%,100%);stop-opacity:1;"/>
<stop offset="1" style="stop-color:rgb(78.431374%,13.333334%,100%);stop-opacity:1;"/>
</linearGradient>
<linearGradient id="linear11" gradientUnits="userSpaceOnUse" x1="102.125" y1="19.484381" x2="102.125" y2="154.574249" gradientTransform="matrix(0.55814,0,0,0.55814,0,0)">
<stop offset="0" style="stop-color:rgb(10.196079%,42.745098%,100%);stop-opacity:1;"/>
<stop offset="1" style="stop-color:rgb(78.431374%,13.333334%,100%);stop-opacity:1;"/>
</linearGradient>
<linearGradient id="linear12" gradientUnits="userSpaceOnUse" x1="104.8125" y1="19.484381" x2="104.8125" y2="154.574249" gradientTransform="matrix(0.55814,0,0,0.55814,0,0)">
<stop offset="0" style="stop-color:rgb(10.196079%,42.745098%,100%);stop-opacity:1;"/>
<stop offset="1" style="stop-color:rgb(78.431374%,13.333334%,100%);stop-opacity:1;"/>
</linearGradient>
<linearGradient id="linear13" gradientUnits="userSpaceOnUse" x1="139.75" y1="19.484381" x2="139.75" y2="154.574249" gradientTransform="matrix(0.55814,0,0,0.55814,0,0)">
<stop offset="0" style="stop-color:rgb(10.196079%,42.745098%,100%);stop-opacity:1;"/>
<stop offset="1" style="stop-color:rgb(78.431374%,13.333334%,100%);stop-opacity:1;"/>
</linearGradient>
<linearGradient id="linear14" gradientUnits="userSpaceOnUse" x1="120.9375" y1="102.619499" x2="120.9375" y2="108.18531" gradientTransform="matrix(0.55814,0,0,0.55814,0,0)">
<stop offset="0" style="stop-color:rgb(54.11765%,70.588237%,100%);stop-opacity:1;"/>
<stop offset="1" style="stop-color:rgb(89.411765%,57.254905%,100%);stop-opacity:1;"/>
</linearGradient>
<linearGradient id="linear15" gradientUnits="userSpaceOnUse" x1="104.8125" y1="28.890631" x2="104.8125" y2="72.5625" gradientTransform="matrix(0.55814,0,0,0.55814,0,0)">
<stop offset="0" style="stop-color:rgb(54.11765%,70.588237%,100%);stop-opacity:1;"/>
<stop offset="1" style="stop-color:rgb(89.411765%,57.254905%,100%);stop-opacity:1;"/>
</linearGradient>
</defs>
<g id="surface42374790">
<path style=" stroke:none;fill-rule:nonzero;fill:url(#linear0);" d="M 39 10.5 C 43.140625 10.5 46.5 13.859375 46.5 18 C 46.5 20.242188 46.5 25.5 46.5 25.5 C 46.5 25.5 40.902344 25.5 39 25.5 C 34.859375 25.5 31.5 22.140625 31.5 18 C 31.5 13.859375 34.859375 10.5 39 10.5 Z M 39 10.5 "/>
<path style=" stroke:none;fill-rule:nonzero;fill:url(#linear1);" d="M 10.5 57 C 10.5 52.855469 13.859375 49.5 18 49.5 C 20.242188 49.5 25.5 49.5 25.5 49.5 C 25.5 49.5 25.5 55.097656 25.5 57 C 25.5 61.144531 22.140625 64.5 18 64.5 C 13.859375 64.5 10.5 61.144531 10.5 57 Z M 10.5 57 "/>
<path style=" stroke:none;fill-rule:nonzero;fill:url(#linear2);" d="M 57 85.5 C 52.859375 85.5 49.5 82.140625 49.5 78 C 49.5 75.757812 49.5 70.5 49.5 70.5 C 49.5 70.5 55.097656 70.5 57 70.5 C 61.140625 70.5 64.5 73.859375 64.5 78 C 64.5 82.140625 61.140625 85.5 57 85.5 Z M 57 85.5 "/>
<path style=" stroke:none;fill-rule:nonzero;fill:url(#linear3);" d="M 85.5 39 C 85.5 43.144531 82.140625 46.5 78 46.5 C 75.757812 46.5 70.5 46.5 70.5 46.5 C 70.5 46.5 70.5 40.902344 70.5 39 C 70.5 34.855469 73.859375 31.5 78 31.5 C 82.140625 31.5 85.5 34.855469 85.5 39 Z M 85.5 39 "/>
<path style=" stroke:none;fill-rule:nonzero;fill:url(#linear4);" d="M 38.921875 33 C 41.445312 33 43.5 35.019531 43.5 37.5 C 43.5 39.980469 41.445312 42 38.921875 42 L 18.078125 42 C 15.554688 42 13.5 39.980469 13.5 37.5 C 13.5 35.019531 15.554688 33 18.078125 33 L 38.921875 33 M 38.921875 30 C 36.535156 30 20.453125 30 18.078125 30 C 13.894531 30 10.5 33.359375 10.5 37.5 C 10.5 41.640625 13.894531 45 18.078125 45 C 20.457031 45 36.535156 45 38.921875 45 C 43.105469 45 46.5 41.640625 46.5 37.5 C 46.5 33.359375 43.105469 30 38.921875 30 Z M 38.921875 30 "/>
<path style=" stroke:none;fill-rule:nonzero;fill:url(#linear5);" d="M 39 13.5 C 41.480469 13.5 43.5 15.519531 43.5 18 L 43.5 22.5 L 39 22.5 C 36.519531 22.5 34.5 20.480469 34.5 18 C 34.5 15.519531 36.519531 13.5 39 13.5 M 39 10.5 C 34.859375 10.5 31.5 13.859375 31.5 18 C 31.5 22.140625 34.859375 25.5 39 25.5 C 40.902344 25.5 46.5 25.5 46.5 25.5 C 46.5 25.5 46.5 20.242188 46.5 18 C 46.5 13.859375 43.140625 10.5 39 10.5 Z M 39 10.5 "/>
<path style=" stroke:none;fill-rule:nonzero;fill:url(#linear6);" d="M 37.5 52.5 C 39.980469 52.5 42 54.554688 42 57.078125 L 42 77.921875 C 42 80.445312 39.980469 82.5 37.5 82.5 C 35.019531 82.5 33 80.445312 33 77.921875 L 33 57.078125 C 33 54.554688 35.019531 52.5 37.5 52.5 M 37.5 49.5 C 33.359375 49.5 30 52.894531 30 57.078125 C 30 59.464844 30 75.546875 30 77.921875 C 30 82.105469 33.359375 85.5 37.5 85.5 C 41.640625 85.5 45 82.105469 45 77.921875 C 45 75.542969 45 59.464844 45 57.078125 C 45 52.894531 41.640625 49.5 37.5 49.5 Z M 37.5 49.5 "/>
<path style=" stroke:none;fill-rule:nonzero;fill:url(#linear7);" d="M 22.5 52.5 L 22.5 57 C 22.5 59.480469 20.480469 61.5 18 61.5 C 15.519531 61.5 13.5 59.480469 13.5 57 C 13.5 54.519531 15.519531 52.5 18 52.5 L 22.5 52.5 M 25.5 49.5 C 25.5 49.5 20.242188 49.5 18 49.5 C 13.859375 49.5 10.5 52.855469 10.5 57 C 10.5 61.144531 13.859375 64.5 18 64.5 C 22.140625 64.5 25.5 61.144531 25.5 57 C 25.5 55.097656 25.5 49.5 25.5 49.5 Z M 25.5 49.5 "/>
<path style=" stroke:none;fill-rule:nonzero;fill:url(#linear8);" d="M 39 39 L 18 39 C 17.171875 39 16.5 38.328125 16.5 37.5 C 16.5 36.671875 17.171875 36 18 36 L 39 36 C 39.828125 36 40.5 36.671875 40.5 37.5 C 40.5 38.328125 39.828125 39 39 39 Z M 39 39 "/>
<path style=" stroke:none;fill-rule:nonzero;fill:url(#linear9);" d="M 36 78 L 36 57 C 36 56.171875 36.671875 55.5 37.5 55.5 C 38.328125 55.5 39 56.171875 39 57 L 39 78 C 39 78.828125 38.328125 79.5 37.5 79.5 C 36.671875 79.5 36 78.828125 36 78 Z M 36 78 "/>
<path style=" stroke:none;fill-rule:nonzero;fill:url(#linear10);" d="M 77.921875 54 C 80.445312 54 82.5 56.019531 82.5 58.5 C 82.5 60.980469 80.445312 63 77.921875 63 L 57.078125 63 C 54.554688 63 52.5 60.980469 52.5 58.5 C 52.5 56.019531 54.554688 54 57.078125 54 L 77.921875 54 M 77.921875 51 C 75.542969 51 59.464844 51 57.078125 51 C 52.894531 51 49.5 54.359375 49.5 58.5 C 49.5 62.640625 52.894531 66 57.078125 66 C 59.464844 66 75.546875 66 77.921875 66 C 82.105469 66 85.5 62.640625 85.5 58.5 C 85.5 54.359375 82.105469 51 77.921875 51 Z M 77.921875 51 "/>
<path style=" stroke:none;fill-rule:nonzero;fill:url(#linear11);" d="M 57 73.5 C 59.480469 73.5 61.5 75.519531 61.5 78 C 61.5 80.480469 59.480469 82.5 57 82.5 C 54.519531 82.5 52.5 80.480469 52.5 78 L 52.5 73.5 L 57 73.5 M 57 70.5 C 55.097656 70.5 49.5 70.5 49.5 70.5 C 49.5 70.5 49.5 75.757812 49.5 78 C 49.5 82.140625 52.859375 85.5 57 85.5 C 61.140625 85.5 64.5 82.140625 64.5 78 C 64.5 73.859375 61.140625 70.5 57 70.5 Z M 57 70.5 "/>
<path style=" stroke:none;fill-rule:nonzero;fill:url(#linear12);" d="M 58.5 13.5 C 60.980469 13.5 63 15.554688 63 18.078125 L 63 38.921875 C 63 41.445312 60.980469 43.5 58.5 43.5 C 56.019531 43.5 54 41.445312 54 38.921875 L 54 18.078125 C 54 15.554688 56.019531 13.5 58.5 13.5 M 58.5 10.5 C 54.359375 10.5 51 13.894531 51 18.078125 C 51 20.453125 51 36.535156 51 38.921875 C 51 43.105469 54.359375 46.5 58.5 46.5 C 62.640625 46.5 66 43.105469 66 38.921875 C 66 36.535156 66 20.457031 66 18.078125 C 66 13.894531 62.640625 10.5 58.5 10.5 Z M 58.5 10.5 "/>
<path style=" stroke:none;fill-rule:nonzero;fill:url(#linear13);" d="M 78 34.5 C 80.480469 34.5 82.5 36.519531 82.5 39 C 82.5 41.480469 80.480469 43.5 78 43.5 L 73.5 43.5 L 73.5 39 C 73.5 36.519531 75.519531 34.5 78 34.5 M 78 31.5 C 73.859375 31.5 70.5 34.855469 70.5 39 C 70.5 40.902344 70.5 46.5 70.5 46.5 C 70.5 46.5 75.757812 46.5 78 46.5 C 82.140625 46.5 85.5 43.144531 85.5 39 C 85.5 34.855469 82.140625 31.5 78 31.5 Z M 78 31.5 "/>
<path style=" stroke:none;fill-rule:nonzero;fill:url(#linear14);" d="M 57 57 L 78 57 C 78.828125 57 79.5 57.671875 79.5 58.5 C 79.5 59.328125 78.828125 60 78 60 L 57 60 C 56.171875 60 55.5 59.328125 55.5 58.5 C 55.5 57.671875 56.171875 57 57 57 Z M 57 57 "/>
<path style=" stroke:none;fill-rule:nonzero;fill:url(#linear15);" d="M 60 18 L 60 39 C 60 39.828125 59.328125 40.5 58.5 40.5 C 57.671875 40.5 57 39.828125 57 39 L 57 18 C 57 17.171875 57.671875 16.5 58.5 16.5 C 59.328125 16.5 60 17.171875 60 18 Z M 60 18 "/>
</g>
</svg>
