<?xml version="1.0" encoding="UTF-8"?> <svg xmlns="http://www.w3.org/2000/svg" xmlns:xlink="http://www.w3.org/1999/xlink" width="1206" height="874.734" viewBox="0 0 1206 874.734"><defs><clipPath id="clip-path"><rect id="Rectangle_68" data-name="Rectangle 68" width="1206" height="710" transform="translate(714)" fill="#fff" stroke="#707070" stroke-width="1"></rect></clipPath><radialGradient id="radial-gradient" cx="72.998" cy="57.645" r="86.078" gradientTransform="matrix(0.867, -0.083, 0.083, 0.867, 4.871, 13.719)" gradientUnits="userSpaceOnUse"><stop offset="0" stop-color="#231f20"></stop><stop offset="1" stop-color="#231f20" stop-opacity="0"></stop></radialGradient><linearGradient id="linear-gradient" x1="0.535" y1="-0.265" x2="0.473" y2="1.429" gradientUnits="objectBoundingBox"><stop offset="0"></stop><stop offset="1" stop-opacity="0"></stop></linearGradient><radialGradient id="radial-gradient-2" cx="3330.281" cy="3132.752" r="24.751" gradientTransform="translate(-2401.697 -2265.075) scale(1.903 1.903)" gradientUnits="userSpaceOnUse"><stop offset="0" stop-color="#f7941d"></stop><stop offset="1" stop-color="#f7941d" stop-opacity="0"></stop></radialGradient><radialGradient id="radial-gradient-3" cx="7234.549" cy="5787.44" r="27.359" gradientTransform="translate(-11855.183 -9499.15) scale(2.84 2.84)" xlink:href="#radial-gradient"></radialGradient><linearGradient id="linear-gradient-2" x1="1.86" y1="0.605" x2="-1.45" y2="0.345" gradientUnits="objectBoundingBox"><stop offset="0" stop-color="#231f20"></stop><stop offset="0.037" stop-color="#231f20" stop-opacity="0.949"></stop><stop offset="0.633" stop-color="#231f20" stop-opacity="0.255"></stop><stop offset="1" stop-color="#231f20" stop-opacity="0"></stop></linearGradient><radialGradient id="radial-gradient-4" cx="-308.013" cy="-36.689" r="69.091" gradientTransform="translate(-308.024 -39.666) scale(0.661 0.661)" xlink:href="#radial-gradient-2"></radialGradient><radialGradient id="radial-gradient-5" cx="-4416.525" cy="31.56" r="27.6" gradientTransform="matrix(-1.088, 0, 0, 1.088, -10250.497, -1.469)" gradientUnits="userSpaceOnUse"><stop offset="0" stop-color="#f7941d"></stop><stop offset="0.98" stop-color="#f7941d" stop-opacity="0"></stop></radialGradient><radialGradient id="radial-gradient-6" cx="-4474.221" cy="51.123" r="38.319" gradientTransform="matrix(-1.088, 0, 0, 1.088, -10370.981, -3.195)" xlink:href="#radial-gradient"></radialGradient><linearGradient id="linear-gradient-3" x1="-14.506" y1="-0.224" x2="-14.539" y2="1.583" gradientUnits="objectBoundingBox"><stop offset="0" stop-color="#ea9494"></stop><stop offset="1" stop-color="#fcc1aa"></stop></linearGradient><linearGradient id="linear-gradient-4" x1="-19.427" y1="0.034" x2="-19.42" y2="1.432" xlink:href="#linear-gradient-3"></linearGradient><linearGradient id="linear-gradient-5" x1="-12.649" y1="0.035" x2="-12.642" y2="1.433" xlink:href="#linear-gradient-3"></linearGradient><linearGradient id="linear-gradient-6" x1="-0.801" y1="0.199" x2="2.454" y2="0.559" gradientUnits="objectBoundingBox"><stop offset="0" stop-color="#331d9a"></stop><stop offset="1" stop-color="#fff" stop-opacity="0"></stop></linearGradient><radialGradient id="radial-gradient-7" cx="-11230.515" cy="4662.433" r="26.267" gradientTransform="matrix(-2.311, 0, 0, 2.311, -39648.686, -5253.915)" xlink:href="#radial-gradient-2"></radialGradient><radialGradient id="radial-gradient-8" cx="-3940.243" cy="71.64" r="89.664" gradientTransform="matrix(-0.858, 0, 0, 0.858, -8280.376, -6.891)" xlink:href="#radial-gradient-2"></radialGradient><radialGradient id="radial-gradient-9" cx="-4049.544" cy="101.719" r="90.453" gradientTransform="matrix(-0.858, 0, 0, 0.858, -8483.469, -2.622)" xlink:href="#radial-gradient"></radialGradient><linearGradient id="linear-gradient-7" x1="2.362" y1="0.482" x2="-0.72" y2="0.516" gradientUnits="objectBoundingBox"><stop offset="0" stop-color="#231f20"></stop><stop offset="0.555" stop-color="#231f20" stop-opacity="0.369"></stop><stop offset="1" stop-color="#231f20" stop-opacity="0"></stop></linearGradient><linearGradient id="linear-gradient-8" x1="1.152" y1="0.782" x2="0.28" y2="0.436" xlink:href="#linear-gradient-7"></linearGradient><radialGradient id="radial-gradient-10" cx="-312.181" cy="-314.064" r="71.047" gradientTransform="translate(-319.233 -311.725) scale(0.664 0.664)" xlink:href="#radial-gradient-2"></radialGradient><radialGradient id="radial-gradient-11" cx="1225.451" cy="94.194" r="80.796" gradientTransform="translate(-163.319 -11.606) scale(1.254 1.254)" xlink:href="#radial-gradient-2"></radialGradient><radialGradient id="radial-gradient-12" cx="1347.378" cy="215.57" r="66.14" gradientTransform="translate(-194.323 -42.47) scale(1.254 1.254)" xlink:href="#radial-gradient"></radialGradient></defs><g id="Groupe_49" data-name="Groupe 49" transform="translate(-714)"><g id="Groupe_de_masques_3" data-name="Groupe de masques 3" clip-path="url(#clip-path)"><path id="Tracé_132" data-name="Tracé 132" d="M468.117,149.357C861.926-65.666,1209.3,7.017,1586.436,170.589c322.694,139.958,635.152,354.865,996.28,373.766,360.024,18.85,675.134-82.96,992.705,60.125,425.782,191.839,448.632,554.066,261.3,823.9-259.736,374.132-780.3,405.987-1171.768,220.018C2341,1494.514,2014.288,1322.61,1513.479,1389.49,1142.505,1439.031,836.59,1724.026,448.5,1579.395,8.346,1415.359-260.257,547.045,468.117,149.357Z" transform="matrix(0.978, -0.208, 0.208, 0.978, 614.089, -791.133)" fill="#f2faff"></path></g><g id="Groupe_18" data-name="Groupe 18" transform="translate(42.159 -31.68)"><path id="Polygone_1" data-name="Polygone 1" d="M111.529,0,223.058,192.361H0Z" transform="translate(1503.067 307.055)" fill="#ddf2ff"></path><g id="Rectangle_38" data-name="Rectangle 38" transform="translate(1528.646 413.164) rotate(45)" fill="none" stroke="#005384" stroke-width="1"><rect width="100.274" height="100.274" stroke="none"></rect><rect x="0.5" y="0.5" width="99.274" height="99.274" fill="none"></rect></g><path id="Tracé_110" data-name="Tracé 110" d="M190.283,40.1H560.052L610.3,160.734H0Z" transform="translate(1054.678 712.537)" fill="#a01f62" opacity="0.076"></path><g id="Tracé_111" data-name="Tracé 111" transform="translate(1054.678 712.537)" fill="none"><path d="M190.283,40.1H560.052L610.3,160.734H0Z" stroke="none"></path><path d="M 190.5733032226562 41.09542846679688 L 3.44482421875 159.73388671875 L 608.8003540039062 159.73388671875 L 559.3856201171875 41.09542846679688 L 190.5733032226562 41.09542846679688 M 190.2830505371094 40.09542846679688 L 560.0523681640625 40.09542846679688 L 610.3001098632812 160.73388671875 L 0 160.73388671875 L 190.2830505371094 40.09542846679688 Z" stroke="none" fill="#a01f62"></path></g><g id="Groupe_5" data-name="Groupe 5" transform="translate(1372.079 452.467)"><g id="hair_back_cel" transform="translate(27.329 38.18)"><path id="Rectangle_20" data-name="Rectangle 20" d="M0,0H71.855a0,0,0,0,1,0,0V56.847a5.774,5.774,0,0,1-5.774,5.774H5.774A5.774,5.774,0,0,1,0,56.847V0A0,0,0,0,1,0,0Z" transform="translate(5.986 0) rotate(5.485)" fill="#593c68"></path><path id="Rectangle_21" data-name="Rectangle 21" d="M0,0H71.855a0,0,0,0,1,0,0V56.847a5.774,5.774,0,0,1-5.774,5.774H5.774A5.774,5.774,0,0,1,0,56.847V0A0,0,0,0,1,0,0Z" transform="translate(5.986 0) rotate(5.485)" opacity="0.58" fill="url(#radial-gradient)"></path></g><g id="cou_cel" transform="translate(62.506 69.778)"><path id="Tracé_12" data-name="Tracé 12" d="M791.434,513.07a5.555,5.555,0,0,0-5.539,5.539v6.379a29.388,29.388,0,0,0,11.078-.017v-6.362A5.555,5.555,0,0,0,791.434,513.07Z" transform="translate(-785.895 -512.057)" fill="#d68f6b"></path><path id="Tracé_13" data-name="Tracé 13" d="M791.434,506.878a5.555,5.555,0,0,0-5.539,5.539V518.8a29.391,29.391,0,0,0,11.078-.017v-6.362A5.555,5.555,0,0,0,791.434,506.878Z" transform="translate(-785.895 -506.878)" opacity="0.38" fill="url(#linear-gradient)"></path><path id="Tracé_14" data-name="Tracé 14" d="M785.9,585.809v6.31a5.539,5.539,0,1,0,11.078,0v-6.327a29.39,29.39,0,0,1-11.078.017Z" transform="translate(-785.895 -572.878)" fill="#d68f6b"></path></g><g id="pied_g_cel" transform="translate(68.504 302.619)"><path id="Tracé_15" data-name="Tracé 15" d="M830.811,2022.591s5.482.834,7.409,5.118,1.562,9.207-2.935,9.345-8.333-2.466-11.07-5.067c-2.762-2.625-2.266-9.443,2.827-9.3S830.811,2022.591,830.811,2022.591Z" transform="translate(-822.55 -2007.392)" fill="#38405e"></path><path id="Tracé_16" data-name="Tracé 16" d="M843.781,1929.711s1.116,14.168,2.912,19.212c1.542,4.33-6.681,4.422-8.737,1.474s-1.456-19.857-1.456-19.857Z" transform="translate(-834.149 -1929.711)" fill="#d68f6b"></path></g><g id="pied_d_cel" transform="translate(50.7 302.619)"><path id="Tracé_17" data-name="Tracé 17" d="M722.265,2022.591s-5.482.834-7.409,5.118-1.562,9.207,2.935,9.345,8.333-2.466,11.069-5.067c2.762-2.625,2.266-9.443-2.827-9.3S722.265,2022.591,722.265,2022.591Z" transform="translate(-713.751 -2007.392)" fill="#38405e"></path><path id="Tracé_18" data-name="Tracé 18" d="M741.541,1929.711s-1.116,14.168-2.912,19.212c-1.542,4.33,6.681,4.422,8.737,1.474s1.456-19.857,1.456-19.857Z" transform="translate(-734.397 -1929.711)" fill="#d68f6b"></path></g><g id="bras_g_cel" transform="translate(78.602 88.021)"><rect id="Rectangle_22" data-name="Rectangle 22" width="13.818" height="66.325" rx="6.909" transform="translate(56.669 46.899) rotate(135)" fill="#d68f6b"></rect></g><g id="av_bras_g_cel" transform="translate(104.231 130.049)"><path id="Tracé_19" data-name="Tracé 19" d="M1042.486,919.209h0a2.366,2.366,0,0,0,3.344-.531l22.676-33.277a6.929,6.929,0,0,0-2.741-9.378h0a6.929,6.929,0,0,0-9.378,2.741l-15.229,35.707A4.025,4.025,0,0,0,1042.486,919.209Z" transform="translate(-1040.864 -875.179)" fill="#d68f6b"></path></g><g id="main_g_cel" transform="translate(91.873 147.643)"><rect id="Rectangle_23" data-name="Rectangle 23" width="26.254" height="6.82" rx="3.41" transform="translate(26.254 27.649) rotate(180)" fill="#ecdee3"></rect><path id="Tracé_20" data-name="Tracé 20" d="M979.72,1111.283l0,0a3.852,3.852,0,0,1,6.415,4.167l.012.007s-2.907,6.925-5.875,10.012-6.383,3.609-8.078,2.381-2.3-4.693-1.3-6.4S979.72,1111.283,979.72,1111.283Z" transform="translate(-969.584 -1089.081)" fill="#d68f6b"></path><rect id="Rectangle_24" data-name="Rectangle 24" width="4.152" height="145.104" transform="translate(22.477 172.752) rotate(-180)" fill="#b1b2b4"></rect><rect id="Rectangle_25" data-name="Rectangle 25" width="11.883" height="31.988" rx="5.942" transform="translate(26.979 31.988) rotate(180)" fill="#ecdee3"></rect><rect id="Rectangle_26" data-name="Rectangle 26" width="6.218" height="9.801" rx="3.109" transform="translate(23.628 179.234) rotate(180)" fill="#cf4d52"></rect></g><g id="bras_d_cel" transform="translate(0 87.156)"><rect id="Rectangle_27" data-name="Rectangle 27" width="13.818" height="66.325" rx="6.909" transform="translate(46.899 0) rotate(45)" fill="#d68f6b"></rect></g><g id="av_bras_d_cel" transform="translate(2.554 129.184)"><path id="Tracé_21" data-name="Tracé 21" d="M446.407,913.925h0a2.367,2.367,0,0,1-3.344-.531l-22.676-33.277a6.929,6.929,0,0,1,2.741-9.378h0a6.929,6.929,0,0,1,9.378,2.741l15.229,35.707A4.025,4.025,0,0,1,446.407,913.925Z" transform="translate(-419.542 -869.895)" fill="#d68f6b"></path></g><g id="main_d_cel" transform="translate(17.056 145.295)"><path id="Tracé_22" data-name="Tracé 22" d="M572.381,1106l0,0a3.852,3.852,0,0,0-6.415,4.168l-.012.008s2.906,6.925,5.875,10.012,6.383,3.609,8.078,2.382,2.3-4.693,1.3-6.4S572.381,1106,572.381,1106Z" transform="translate(-556.174 -1082.314)" fill="#d68f6b"></path><rect id="Rectangle_28" data-name="Rectangle 28" width="4.152" height="145.104" transform="translate(3.866 29.132)" fill="#b1b2b4"></rect><rect id="Rectangle_29" data-name="Rectangle 29" width="6.218" height="9.801" rx="3.109" transform="translate(2.714 170.917)" fill="#cf4d52"></rect><rect id="Rectangle_30" data-name="Rectangle 30" width="26.254" height="6.82" rx="3.41" transform="translate(0.089 22.312)" fill="#ecdee3"></rect><rect id="Rectangle_31" data-name="Rectangle 31" width="11.883" height="31.988" rx="5.942" transform="translate(0 0)" fill="#ecdee3"></rect></g><g id="tshirt_cel" transform="translate(42.569 88.945)"><path id="Tracé_23" data-name="Tracé 23" d="M715.744,717.521l-1.939.724a68.176,68.176,0,0,1-47.8,0l-1.939-.724,2.525-91.365a1.979,1.979,0,0,1,1.978-1.924h41.316a1.979,1.979,0,0,1,1.977,1.895l3.087,72.6.409,9.652Z" transform="translate(-664.064 -624.193)" fill="#cf4d52"></path><path id="Tracé_24" data-name="Tracé 24" d="M715.744,717.29l-1.939.724a68.178,68.178,0,0,1-47.8,0l-1.939-.724,2.491-90.13A3.25,3.25,0,0,1,669.8,624h38.862a3.25,3.25,0,0,1,3.247,3.112l3.036,71.382.409,9.652Z" transform="translate(-664.064 -624)" opacity="0.73" fill="url(#radial-gradient-2)"></path><path id="Tracé_25" data-name="Tracé 25" d="M760.878,624.244l-4.169,11.974a9.361,9.361,0,0,1-8.52,5.78h-.217a9.428,9.428,0,0,1-8.321-5.347l-6.035-12.405Z" transform="translate(-722.234 -624.204)" fill="#d68f6b"></path><path id="Tracé_26" data-name="Tracé 26" d="M806.881,708.805l-31.631,9.238c30.114-38.6,26.083-77.4,27.293-93.812h.358a1.95,1.95,0,0,1,1.948,1.868l3.089,72.626.345,8.125A1.95,1.95,0,0,1,806.881,708.805Z" transform="translate(-757.055 -624.193)" opacity="0.44" fill="url(#radial-gradient-3)"></path></g><g id="pantalon_cel" transform="translate(39.398 165.542)"><path id="Tracé_27" data-name="Tracé 27" d="M700.769,1175.249a329.5,329.5,0,0,1-9.742,49.192c-.144.522-.293,1.048-.446,1.571-.121.423-.243.837-.36,1.242-.275.927-.549,1.858-.833,2.785q-.911,3.01-1.908,5.994c-.419,1.247-.751,2.2-.981,2.844s-.365.99-.365.99l-.328-.009-25.8-.545c-19.21-59.316-15.938-112.224-13.328-133.9.81-6.7,1.557-10.417,1.557-10.417a78.514,78.514,0,0,0,32.542,2.286c11.254-1.611,18.044-5.215,18.044-5.215.014.063.023.126.036.189C704.364,1122.089,703.676,1151.022,700.769,1175.249Z" transform="translate(-644.685 -1092.066)" fill="#b0aad6"></path><rect id="Rectangle_32" data-name="Rectangle 32" width="1.244" height="114.556" transform="translate(28.485 32.984)" fill="#8482a8"></rect><path id="Tracé_28" data-name="Tracé 28" d="M783.455,1290.373a.622.622,0,0,1-.367-1.124,22.375,22.375,0,0,1,11.931-3.988.622.622,0,0,1,0,1.244c-6.009,0-11.144,3.711-11.2,3.749A.619.619,0,0,1,783.455,1290.373Z" transform="translate(-760.226 -1253.645)" fill="#8482a8"></path><path id="Tracé_29" data-name="Tracé 29" d="M884.658,1179.88a319.837,319.837,0,0,1-8.716,42.989c-.147.534-.292,1.061-.436,1.573s-.292,1.048-.446,1.571c-.117.414-.238.828-.36,1.242-.275.927-.549,1.858-.833,2.785q-.911,3.01-1.908,5.994a13.976,13.976,0,0,1-.981,2.844,1.532,1.532,0,0,1-.536.549c-1.341-1.881-1.372-6.043-1.705-8.37q-.635-4.455-.9-8.955c-.738-12.339.675-24.843.864-37.2a64.4,64.4,0,0,1,.594-9.265,33.034,33.034,0,0,1,5.337-13.369c2.578-3.762,4.18-6.651,4.14-11.281a53.287,53.287,0,0,0-1.157-9.693,222.086,222.086,0,0,0-6.219-22.985c-1.683-5.449-3.442-10.881-4.918-16.384-.4-1.49-.85-3.051-1.215-4.639,11.254-1.611,18.044-5.215,18.044-5.215.014.063.023.126.036.189,5.5,29.833,4.815,58.767,1.908,82.994q-.155,1.291-.319,2.561-.068.533-.138,1.066C884.748,1179.212,884.7,1179.546,884.658,1179.88Z" transform="translate(-829.164 -1092.066)" opacity="0.36" fill="url(#linear-gradient-2)"></path></g><g id="head_cel" transform="translate(28.947 0)"><ellipse id="Ellipse_2" data-name="Ellipse 2" cx="35.41" cy="33.397" rx="35.41" ry="33.397" transform="translate(3.503 73.67) rotate(-84.515)" fill="#d68f6b"></ellipse><path id="Tracé_30" data-name="Tracé 30" d="M609.838,121.346s13.1-5.312,16.613-18.81c0,0,7.832,18.595,40.671,14.877,0,0-2.686,9.175,4.012,9.819l6.559.63s3.687-46.1-32.47-47.353-39.053,40.485-39.053,40.485Z" transform="translate(-602.022 -80.482)" fill="#593c68"></path><path id="Tracé_31" data-name="Tracé 31" d="M609.838,121.346s13.1-5.312,16.613-18.81c0,0,7.832,18.595,40.671,14.877,0,0-2.686,9.175,4.012,9.819l6.559.63s3.687-46.1-32.47-47.353-39.053,40.485-39.053,40.485Z" transform="translate(-602.022 -80.482)" opacity="0.42" fill="url(#radial-gradient-4)"></path><path id="Tracé_32" data-name="Tracé 32" d="M999.62,351.194s2.855-4.128,6.112-2.943,3.711,5.413,3.218,8.333c-1.062,6.291-9.853,6.375-9.853,6.375Z" transform="translate(-930.649 -304.253)" fill="#d68f6b"></path><path id="Tracé_33" data-name="Tracé 33" d="M591.009,309.351s-2.017-4.6-5.44-4.052-4.674,4.607-4.745,7.568c-.155,6.379,8.459,8.133,8.459,8.133Z" transform="translate(-580.821 -268.471)" fill="#d68f6b"></path></g><g id="nez_cel" transform="translate(67.3 38.208)"><path id="Tracé_34" data-name="Tracé 34" d="M818.553,328.331l-2.615-.251a.829.829,0,1,1,.158-1.651l2.292.22a1.3,1.3,0,0,0,.4-.535,2.3,2.3,0,0,0,.186-1.65,1.718,1.718,0,0,0-1.347-.923l-.756-.138.927-8.7a.866.866,0,0,1,.912-.737.83.83,0,0,1,.737.912l-.772,7.241a3.22,3.22,0,0,1,1.788,1.618,3.835,3.835,0,0,1-.178,3.093,2.5,2.5,0,0,1-1.607,1.472Z" transform="translate(-815.188 -313.962)" fill="#aa705c"></path></g><g id="bouche_triste_cel" transform="translate(60.764 53.942)"><path id="Tracé_35" data-name="Tracé 35" d="M782.895,413.923a.826.826,0,0,1-.685-.363c-1.106-1.622-4.788-1.841-6.1-1.786a.83.83,0,0,1-.068-1.658c.578-.023,5.716-.16,7.536,2.511a.829.829,0,0,1-.685,1.3Z" transform="translate(-775.25 -410.108)" fill="#aa705c"></path></g><g id="sourcil_pain_cel" transform="translate(50.086 34.451)"><path id="Tracé_36" data-name="Tracé 36" d="M712.294,294.206a10.966,10.966,0,0,1-1.605-.107.818.818,0,0,1,.257-1.616h0c.038.006,3.77.565,6.066-1.3a.818.818,0,0,1,1.032,1.27A9.223,9.223,0,0,1,712.294,294.206Z" transform="translate(-709.999 -291)" fill="#593c68"></path><path id="Tracé_37" data-name="Tracé 37" d="M897.052,319.206a9.223,9.223,0,0,1-5.75-1.753.818.818,0,1,1,1.032-1.27c2.307,1.875,6.026,1.306,6.064,1.3a.818.818,0,1,1,.259,1.616A10.947,10.947,0,0,1,897.052,319.206Z" transform="translate(-861.38 -311.909)" fill="#593c68"></path></g><g id="eyes_cel" transform="translate(52.613 39.474)"><rect id="Rectangle_33" data-name="Rectangle 33" width="2.867" height="5.907" rx="1.434" transform="translate(0.565 0) rotate(5.485)" fill="#352826"></rect><rect id="Rectangle_34" data-name="Rectangle 34" width="2.867" height="5.907" rx="1.434" transform="matrix(0.995, 0.096, -0.096, 0.995, 29.628, 2.791)" fill="#352826"></rect></g></g><g id="MASCOTTE" transform="translate(1086.165 430.557)"><g id="cuisse_d" transform="translate(78.307 247.154)"><path id="Tracé_38" data-name="Tracé 38" d="M764.006,1237.675A14.506,14.506,0,0,0,749.513,1224a16.62,16.62,0,0,0-1.758.1A14.5,14.5,0,0,0,735,1238.513l2.351,41.271.9,18.785a11.946,11.946,0,0,0-.1,1.493,11,11,0,0,0,.307,2.6,12.884,12.884,0,0,0,25.082-1.022,13.315,13.315,0,0,0,.1-1.574,11.307,11.307,0,0,0-.1-1.451l.45-59.055Z" transform="translate(-735 -1224)" fill="#d7d6e6"></path></g><g id="cuisse_g" transform="translate(39.939 247.154)"><path id="Tracé_39" data-name="Tracé 39" d="M563.265,1224.082a16.62,16.62,0,0,0-1.758-.082,14.527,14.527,0,0,0-14.207,13.961l.041,1.86,1.553,60.486a13.292,13.292,0,0,0,.143,1.574,12.531,12.531,0,0,0,12.837,10.241c6.092-.123,12-4.17,13.144-9.628l.2-5.11,1.083-59.157A14.473,14.473,0,0,0,563.265,1224.082Z" transform="translate(-547.3 -1224)" fill="#d7d6e6"></path></g><g id="hanche" transform="translate(39.142 219.717)"><path id="Tracé_40" data-name="Tracé 40" d="M595.157,1089.9a205.212,205.212,0,0,1-21.688,1.165c-3.741-.061-7.788-.225-12.163-.531l-2.351-.184c-.92-.082-1.84-.164-2.78-.245-4.374-.409-12.817,3.189-12.776,13.062l.736,28.761h.041c.879,8.544,15.638,15.331,33.687,15.331,18.479,0,33.5-7.114,33.728-15.944h0v-30.458S613.84,1088.392,595.157,1089.9Z" transform="translate(-543.399 -1089.778)" fill="#d7d6e6"></path></g><g id="bun_x5F_ma" transform="translate(33.548 0)"><g id="Groupe_6" data-name="Groupe 6" transform="translate(0 0)"><path id="Tracé_41" data-name="Tracé 41" d="M517.99,44c4.742,11.1,16.537,16.7,26.369,12.51a12.636,12.636,0,0,0,1.881-.981c8.442-4.865,11.754-16.353,7.338-26.7-4.743-11.1-16.537-16.721-26.369-12.531a15.339,15.339,0,0,0-2.617,1.41C516.682,22.82,513.718,33.94,517.99,44Z" transform="translate(-516.035 -14.911)" fill="#a84488"></path><path id="Tracé_42" data-name="Tracé 42" d="M517.99,44c4.742,11.1,16.537,16.7,26.369,12.51a12.636,12.636,0,0,0,1.881-.981c8.442-4.865,11.754-16.353,7.338-26.7-4.743-11.1-16.537-16.721-26.369-12.531a15.339,15.339,0,0,0-2.617,1.41C516.682,22.82,513.718,33.94,517.99,44Z" transform="translate(-516.035 -14.911)" opacity="0.42" fill="url(#radial-gradient-5)"></path><path id="Tracé_43" data-name="Tracé 43" d="M517.99,44c4.742,11.1,16.537,16.7,26.369,12.51a12.636,12.636,0,0,0,1.881-.981c8.442-4.865,11.754-16.353,7.338-26.7-4.743-11.1-16.537-16.721-26.369-12.531a15.339,15.339,0,0,0-2.617,1.41C516.682,22.82,513.718,33.94,517.99,44Z" transform="translate(-516.035 -14.911)" fill="url(#radial-gradient-6)"></path></g><path id="Tracé_44" data-name="Tracé 44" d="M599.527,120.91a28.338,28.338,0,0,0-16.292,3c-8.769,4.374-11.836,15.229-11.836,15.229Z" transform="translate(-560.083 -99.081)" fill="#cf4d52"></path></g><g id="cou_x5F_ma" transform="translate(71.214 109.298)"><g id="Groupe_7" data-name="Groupe 7" transform="translate(0 0)"><path id="Tracé_45" data-name="Tracé 45" d="M713.4,618.021v7.42a6.5,6.5,0,1,1-13,0V618a36.8,36.8,0,0,0,6.562.634A37.354,37.354,0,0,0,713.4,618.021Z" transform="translate(-700.38 -604.018)" fill="#fcc1aa"></path><path id="Tracé_46" data-name="Tracé 46" d="M706.8,549.6a6.517,6.517,0,0,1,6.5,6.5v7.5a37.351,37.351,0,0,1-6.439.613,36.421,36.421,0,0,1-6.562-.634V556.1A6.517,6.517,0,0,1,706.8,549.6Z" transform="translate(-700.3 -549.6)" fill="#fcc1aa"></path><path id="Tracé_47" data-name="Tracé 47" d="M706.8,549.6a6.517,6.517,0,0,1,6.5,6.5v7.5a37.351,37.351,0,0,1-6.439.613,36.421,36.421,0,0,1-6.562-.634V556.1A6.517,6.517,0,0,1,706.8,549.6Z" transform="translate(-700.3 -549.6)" fill="url(#linear-gradient-3)"></path></g></g><g id="bras_x5F_g_x5F_ma" transform="translate(91.999 130.785)"><path id="Tracé_48" data-name="Tracé 48" d="M870.244,801.568h0a8.138,8.138,0,0,0,5.948-9.812l-14.738-59.914a8.138,8.138,0,0,0-9.812-5.948h0a8.138,8.138,0,0,0-5.949,9.812l14.738,59.914A8.122,8.122,0,0,0,870.244,801.568Z" transform="translate(-836.573 -711.159)" fill="#fcc1aa"></path><path id="Tracé_49" data-name="Tracé 49" d="M809.61,655.183a10.645,10.645,0,0,1,13.307,7.052l8.974,29.681-20.482,6.194-8.974-29.681A10.651,10.651,0,0,1,809.61,655.183Z" transform="translate(-801.981 -654.716)" fill="#9f9dc1"></path></g><g id="bras_x5F_d_x5F_ma" transform="translate(0.183 130.68)"><path id="Tracé_50" data-name="Tracé 50" d="M356.346,781.711h0a8.155,8.155,0,0,0,11.284-2.126l34.771-50.96a8.155,8.155,0,0,0-2.126-11.284h0a8.155,8.155,0,0,0-11.284,2.126l-34.771,50.96A8.14,8.14,0,0,0,356.346,781.711Z" transform="translate(-352.812 -703.32)" fill="#fcc1aa"></path><path id="Tracé_51" data-name="Tracé 51" d="M495.289,655.819a10.648,10.648,0,0,0-14.677,3.393L464.3,685.582l18.193,11.263,16.312-26.369A10.652,10.652,0,0,0,495.289,655.819Z" transform="translate(-441.511 -654.205)" fill="#9f9dc1"></path></g><g id="pied_x5F_d_x5F_ma" transform="translate(47.237 402.958)"><path id="Tracé_52" data-name="Tracé 52" d="M586.087,1986.2v2.351l7.032,3.25c.858-3.025,4.538-3.148,4.538-3.148v-.49c2.9,1.921,13.205,8.912,15.29,12.878,2.432,4.62.818,6.419-1.778,7.073s-13.328-1.451-19.3-5.09a44.976,44.976,0,0,1-8.872-6.684S583.2,1987.958,586.087,1986.2Z" transform="translate(-583 -1986.2)" fill="#c63449"></path></g><g id="pied_x5F_g_x5F_ma" transform="translate(86.443 403.237)"><path id="Tracé_53" data-name="Tracé 53" d="M788.68,1989.35s13.634,8.769,16.067,13.389.818,6.418-1.778,7.072-13.328-1.451-19.3-5.09a44.942,44.942,0,0,1-8.872-6.684s.245-10.793,4.374-10.466A63.429,63.429,0,0,1,788.68,1989.35Z" transform="translate(-774.8 -1987.565)" fill="#c63449"></path></g><g id="jambe_x5F_g_x5F_ma" transform="translate(81.537 312.362)"><path id="Tracé_54" data-name="Tracé 54" d="M795.685,1919.682s5.785.327,5.785,5.744v10.936s-3.68.1-4.538,3.148l-7.032-3.25v-11.59S789.9,1919.5,795.685,1919.682Z" transform="translate(-781.907 -1842.679)" fill="#fcc1aa"></path><path id="Tracé_55" data-name="Tracé 55" d="M789.9,1938.819v-5.846s0-5.151,5.785-4.988c0,0,5.785.327,5.785,5.744v4.885C799.406,1939.637,795.6,1940.639,789.9,1938.819Z" transform="translate(-781.908 -1849.286)" fill="url(#linear-gradient-4)"></path><path id="Tracé_56" data-name="Tracé 56" d="M776.147,1553.609c-.756-5.969-6.153-10.609-12.674-10.609a12.547,12.547,0,0,0-12.674,10.568l.2,4.088,3.168,65.249a7.176,7.176,0,0,0,4.129,6.214c3.23,1.451,7.4,2.616,13.614-.429a7.1,7.1,0,0,0,3.884-6.378l.348-65.678a13.266,13.266,0,0,0,.1-1.574A11.265,11.265,0,0,0,776.147,1553.609Z" transform="translate(-750.8 -1543)" fill="#d7d6e6"></path></g><g id="jambe_x5F_d_x5F_ma" transform="translate(41.513 311.34)"><path id="Tracé_57" data-name="Tracé 57" d="M598.1,1927.519v-5.846s0-5.152,5.785-4.988c0,0,5.785.327,5.785,5.744v4.885C607.605,1928.337,603.8,1929.339,598.1,1927.519Z" transform="translate(-589.29 -1839.274)" fill="#fcc1aa"></path><path id="Tracé_58" data-name="Tracé 58" d="M599.408,1971.951a2.058,2.058,0,0,0-1.308.327V1968.9c5.7,1.82,9.505.818,11.59-.2v5.56c-.491-.327-.777-.511-.777-.511A62.848,62.848,0,0,0,599.408,1971.951Z" transform="translate(-589.29 -1880.66)" fill="#fcc1aa"></path><path id="Tracé_59" data-name="Tracé 59" d="M605.132,1990.5l-7.032-3.25V1984.9a2.2,2.2,0,0,1,1.308-.327,63.444,63.444,0,0,1,9.505,1.779s.307.2.777.511v.49S606.011,1987.476,605.132,1990.5Z" transform="translate(-589.29 -1893.282)" fill="#fcc1aa"></path><path id="Tracé_60" data-name="Tracé 60" d="M598.1,1927.519v-5.846s0-5.152,5.785-4.988c0,0,5.785.327,5.785,5.744v4.885C607.605,1928.337,603.8,1929.339,598.1,1927.519Z" transform="translate(-589.29 -1839.274)" fill="url(#linear-gradient-5)"></path><path id="Tracé_61" data-name="Tracé 61" d="M568.185,1538c-6.766,0-12.326,4.661-13.1,10.67a10.362,10.362,0,0,0-.082,1.39,10.96,10.96,0,0,0,.184,2.024l1.227,43.642.634,22.3a5.979,5.979,0,0,0,3.8,5.458,18.778,18.778,0,0,0,5.519,1.145c.1,0,.2.021.286.021h.184a22.944,22.944,0,0,0,7.829-1.145,5.64,5.64,0,0,0,3.925-5.131l2.637-65.31.061-1.513.082-2.146C580.981,1543.049,575.237,1538,568.185,1538Z" transform="translate(-555 -1538)" fill="#d7d6e6"></path></g><g id="thsirt_x5F_ma" transform="translate(38.222 130.661)"><path id="Tracé_62" data-name="Tracé 62" d="M538.9,767.311l19.235-1.635,11.917-1,5.233-.429,1.308-.123,34.28,3.128.572.061s.695-24.611,1.349-49.836c.082-2.841.143-5.7.225-8.524.552-21.586,1-41.619.9-44.869a9.83,9.83,0,0,0-2.351-6.132,11.189,11.189,0,0,0-8.5-3.72H550.94a6.236,6.236,0,0,0-1.349.041,7.726,7.726,0,0,0-3.577,1.39c-1.881,1.349-3.72,3.945-4.252,8.933-.082.634-.123,1.288-.143,1.983-.368,11.427-2.085,76.614-2.576,95.584C538.961,765.41,538.9,767.311,538.9,767.311Z" transform="translate(-538.9 -654.19)" fill="#b0aad6"></path><rect id="Rectangle_35" data-name="Rectangle 35" width="93.274" height="0.981" transform="matrix(0.02, -1, 1, 0.02, 37.183, 109.914)" fill="#877db4"></rect><rect id="Rectangle_36" data-name="Rectangle 36" width="14.943" height="3.495" transform="translate(9.669 30.435)" fill="#f1f0f7"></rect><path id="Tracé_63" data-name="Tracé 63" d="M675,654.2l11.672,19.746L698.365,654.2" transform="translate(-647.179 -654.182)" fill="#fcc1aa"></path><path id="Tracé_64" data-name="Tracé 64" d="M538.9,767.231l19.235-1.635,11.917-1c-2.105-8.667-6.848-18.07-11.345-30.294-7.522-20.462,2.105-50.981,2.576-66.741.143-4.947-1.983-9.505-4.988-13.43H550.92a6.246,6.246,0,0,0-1.349.041,7.727,7.727,0,0,0-3.577,1.39c-1.881,1.349-3.72,3.945-4.252,8.933-.082.634-.123,1.288-.143,1.983-.368,11.427-2.085,76.614-2.576,95.584C538.961,765.33,538.9,767.231,538.9,767.231Z" transform="translate(-538.9 -654.111)" opacity="0.44" fill="url(#linear-gradient-6)"></path><path id="Tracé_65" data-name="Tracé 65" d="M792,691.771c3.782,5.356,15.433,13.553,20.789,17.15.552-21.586,1-41.619.9-44.869a9.831,9.831,0,0,0-2.351-6.133,11.189,11.189,0,0,0-8.5-3.72h-9.2a14.566,14.566,0,0,1,1.553,10.956C792.737,676.44,787.014,684.719,792,691.771Z" transform="translate(-738.69 -654.182)" opacity="0.42" fill="url(#radial-gradient-7)"></path></g><g id="av_x5F_bras_x5F_d" transform="translate(0 194.153)"><path id="Tracé_66" data-name="Tracé 66" d="M372.375,1020.8h0a2.8,2.8,0,0,0,2.473-3.128l-6.95-46.811a8.137,8.137,0,0,0-9.832-5.908h0a8.137,8.137,0,0,0-5.908,9.832l15.311,42.968A4.638,4.638,0,0,0,372.375,1020.8Z" transform="translate(-351.916 -964.716)" fill="#fcc1aa"></path></g><g id="main_x5F_d_x5F_ma" transform="translate(15.5 242.734)"><path id="Tracé_67" data-name="Tracé 67" d="M429.43,1210.435h0a4.526,4.526,0,0,1,4.763-7.624v-.021s8.2,3.271,11.876,6.7,4.375,7.42,2.964,9.444-5.478,2.8-7.5,1.656C439.528,1219.449,429.43,1210.435,429.43,1210.435Z" transform="translate(-427.742 -1202.376)" fill="#fcc1aa"></path></g><g id="av_x5F_bras_x5F_g_x5F_ma" transform="translate(115.712 182.236)"><path id="Tracé_68" data-name="Tracé 68" d="M965.821,907.887h0a2.782,2.782,0,0,0-3.822-1.1L921.3,930.9a8.147,8.147,0,0,0-1.758,11.345h0a8.147,8.147,0,0,0,11.345,1.758l33.994-30.417A4.726,4.726,0,0,0,965.821,907.887Z" transform="translate(-917.986 -906.419)" fill="#fcc1aa"></path></g><g id="main_x5F_g_x5F_ma" transform="translate(156.393 165.059)"><path id="Tracé_69" data-name="Tracé 69" d="M1125.891,843.852h0a4.535,4.535,0,0,1-8.871-1.554H1117s-.061-8.831,1.717-13.532,5.233-6.848,7.625-6.3,4.66,4.007,4.354,6.316C1130.409,831.1,1125.891,843.852,1125.891,843.852Z" transform="translate(-1116.999 -822.385)" fill="#fcc1aa"></path></g><g id="head_x5F_ma" transform="translate(38.386 34.38)"><ellipse id="Ellipse_3" data-name="Ellipse 3" cx="39.247" cy="41.598" rx="39.247" ry="41.598" fill="#fcc1aa"></ellipse></g><g id="nez_x5F_ma" transform="translate(81.926 74.261)"><path id="Tracé_70" data-name="Tracé 70" d="M755.174,378.2l-.736,8.974s3.271.409,3.025,2.862-4.558,1.942-4.763,1.9" transform="translate(-752.7 -378.2)" fill="none" stroke="#e08d79" stroke-linecap="round" stroke-miterlimit="10" stroke-width="1"></path></g><g id="yeux_x5F_ma" transform="translate(65.817 76.08)"><path id="Tracé_71" data-name="Tracé 71" d="M843.376,394.03h0a1.684,1.684,0,0,0,1.676-1.676v-3.577a1.684,1.684,0,0,0-1.676-1.676h0a1.684,1.684,0,0,0-1.676,1.676v3.577A1.684,1.684,0,0,0,843.376,394.03Z" transform="translate(-807.399 -387.1)" fill="#3f2d28"></path><path id="Tracé_72" data-name="Tracé 72" d="M675.575,394.03h0a1.684,1.684,0,0,0,1.676-1.676v-3.577a1.684,1.684,0,0,0-1.676-1.676h0a1.684,1.684,0,0,0-1.676,1.676v3.577A1.658,1.658,0,0,0,675.575,394.03Z" transform="translate(-673.898 -387.1)" fill="#3f2d28"></path></g><g id="smile_x5F_ma" transform="translate(77.285 93.231)"><path id="Tracé_73" data-name="Tracé 73" d="M730,471s3.475,6.132,8.177,2.044" transform="translate(-730 -471)" fill="none" stroke="#e08d79" stroke-linecap="round" stroke-miterlimit="10" stroke-width="1"></path></g><g id="lunette_x5F_ma" transform="translate(53.389 66.575)"><g id="Groupe_9" data-name="Groupe 9" transform="translate(0 0)"><g id="Groupe_8" data-name="Groupe 8"><path id="Tracé_74" data-name="Tracé 74" d="M781.9,354.173a13.573,13.573,0,1,1,13.573,13.593A13.592,13.592,0,0,1,781.9,354.173Zm1.942,0a11.631,11.631,0,1,0,11.631-11.631A11.638,11.638,0,0,0,783.842,354.173Z" transform="translate(-747.395 -340.6)" fill="#cf4d52"></path><path id="Tracé_75" data-name="Tracé 75" d="M613.1,354.173a13.583,13.583,0,1,1,13.594,13.593A13.592,13.592,0,0,1,613.1,354.173Zm1.962,0a11.631,11.631,0,1,0,11.631-11.631A11.638,11.638,0,0,0,615.062,354.173Z" transform="translate(-613.1 -340.6)" fill="#cf4d52"></path><rect id="Rectangle_37" data-name="Rectangle 37" width="9.301" height="1.942" transform="translate(26.206 11.999)" fill="#cf4d52"></rect></g></g></g><g id="cheveux_x5F_ma" transform="translate(33.302 21.522)"><path id="Tracé_76" data-name="Tracé 76" d="M530.631,177.518l7.093-5.172c-.511,14.82,7.093,20.809,7.563,21.157-.327-.879-9.607-24.673,11.488-29.62,21.484-5.069,27.719-13.921,27.719-13.921.1.327.2.634.327.961,4.722,13.43,19.3,19.889,29.149,22.813a48.1,48.1,0,0,0,.654-7.931c0-25.184-19.133-45.6-42.722-45.6a40.043,40.043,0,0,0-14.023,2.535c-16.7,6.194-28.679,23.14-28.679,43.07A50.072,50.072,0,0,0,530.631,177.518Z" transform="translate(-526.263 -120.2)" fill="#a84488"></path><path id="Tracé_77" data-name="Tracé 77" d="M530.631,177.518l7.093-5.172c-.511,14.82,7.093,20.809,7.563,21.157-.327-.879-9.607-24.673,11.488-29.62,21.484-5.069,27.719-13.921,27.719-13.921.1.327.2.634.327.961,4.722,13.43,19.3,19.889,29.149,22.813a48.1,48.1,0,0,0,.654-7.931c0-25.184-19.133-45.6-42.722-45.6a40.043,40.043,0,0,0-14.023,2.535c-16.7,6.194-28.679,23.14-28.679,43.07A50.072,50.072,0,0,0,530.631,177.518Z" transform="translate(-526.263 -120.2)" opacity="0.42" fill="url(#radial-gradient-8)"></path><path id="Tracé_78" data-name="Tracé 78" d="M530.631,177.518l7.093-5.172c-.511,14.82,7.093,20.809,7.563,21.157-.327-.879-9.607-24.673,11.488-29.62,21.484-5.069,27.719-13.921,27.719-13.921.1.327.2.634.327.961,4.722,13.43,19.3,19.889,29.149,22.813a48.1,48.1,0,0,0,.654-7.931c0-25.184-19.133-45.6-42.722-45.6a40.043,40.043,0,0,0-14.023,2.535c-16.7,6.194-28.679,23.14-28.679,43.07A50.072,50.072,0,0,0,530.631,177.518Z" transform="translate(-526.263 -120.2)" fill="url(#radial-gradient-9)"></path><path id="Tracé_79" data-name="Tracé 79" d="M526.394,358.107s-2.882-5.151-6.827-4.129-4.947,5.908-4.7,9.383c.531,7.482,10.813,8.565,10.813,8.565Z" transform="translate(-514.83 -306.084)" fill="#fcc1aa"></path></g></g><g id="Groupe_10" data-name="Groupe 10" transform="translate(1059.547 281.66)"><path id="Tracé_80" data-name="Tracé 80" d="M328.394,235H272.7L244.85,283.234,272.7,331.468h55.7l27.848-48.234Z" transform="translate(-244.85 -235)" fill="#f8eef3"></path><g id="Rectangle_39" data-name="Rectangle 39" transform="translate(48.319 70.932)" fill="none" stroke="#a01f62" stroke-miterlimit="10" stroke-width="1"><rect width="51.071" height="51.071" stroke="none"></rect><rect x="0.5" y="0.5" width="50.071" height="50.071" fill="none"></rect></g></g><g id="Groupe_16" data-name="Groupe 16" transform="translate(1585.842 430.39)"><g id="pied_d" transform="translate(16.157 431.492)"><g id="Groupe_11" data-name="Groupe 11"><path id="Tracé_81" data-name="Tracé 81" d="M606.18,1967.939s-19.129,10.292-22.545,15.724-1.139,7.529,2.5,8.291,18.686-1.708,27.061-5.964c8.578-4.359,12.449-7.854,12.449-7.854s-.341-12.674-6.148-12.293A103.429,103.429,0,0,0,606.18,1967.939Z" transform="translate(-581.955 -1949.542)" fill="#a84488"></path><path id="Tracé_82" data-name="Tracé 82" d="M689.088,1896.08s-8.122.381-8.122,6.734v12.833s5.162.127,6.376,3.685l9.868-3.812v-13.6S697.211,1895.872,689.088,1896.08Z" transform="translate(-657.842 -1896.075)" fill="#f7b288"></path></g></g><g id="pied_g" transform="translate(68.031 433.474)"><g id="Groupe_12" data-name="Groupe 12"><path id="Tracé_83" data-name="Tracé 83" d="M828.29,1976.429s-19.129,10.292-22.545,15.724-1.139,7.528,2.505,8.291,18.686-1.708,27.061-5.964c8.578-4.359,12.449-7.854,12.449-7.854s-.342-12.674-6.149-12.293A103.35,103.35,0,0,0,828.29,1976.429Z" transform="translate(-804.065 -1958.032)" fill="#a84488"></path><path id="Tracé_84" data-name="Tracé 84" d="M911.2,1904.57s-8.122.381-8.122,6.734v12.833s5.162.127,6.376,3.685l9.868-3.812v-13.6S919.322,1904.363,911.2,1904.57Z" transform="translate(-879.953 -1904.565)" fill="#f7b288"></path></g></g><g id="pântalon_marc" transform="translate(33.387 249.101)"><path id="Tracé_85" data-name="Tracé 85" d="M740.026,1117.949l-1.9,91.89-1.986,66.374-.776,26.186a7.046,7.046,0,0,1-4.736,6.405,24.329,24.329,0,0,1-7.225,1.372,25.249,25.249,0,0,1-2.644-.031,30.762,30.762,0,0,1-7.33-1.316,6.681,6.681,0,0,1-4.872-6.014l-3.277-76.665-2.4-55.854-12.32-.571-1.527,30.053L683.719,1303.2a8.447,8.447,0,0,1-5.146,7.3c-4.028,1.688-9.217,3.06-16.956-.5a8.3,8.3,0,0,1-4.829-7.479l-.894-156.44-.168-30.947s6.083,4,19.346,5.723c8.149,1.042,18.483,1.483,32.5.875q4.2-.187,8.857-.5C723.665,1120.754,731.317,1119.116,740.026,1117.949Z" transform="translate(-655.726 -1115.131)" fill="#8b9acc"></path><path id="Tracé_86" data-name="Tracé 86" d="M903.451,1127.2l-1.9,91.89-1.986,66.374-.776,26.186a7.047,7.047,0,0,1-4.736,6.406,24.333,24.333,0,0,1-7.225,1.372,25.119,25.119,0,0,1-2.644-.031c-7.9-23.8,7.367-92,9.335-115.922,2.16-26.285-30.295-50.268-23.679-69.738a20.793,20.793,0,0,1,1.161-2.756q4.2-.186,8.857-.5C887.09,1130,894.742,1128.363,903.451,1127.2Z" transform="translate(-819.151 -1124.378)" opacity="0.44" fill="url(#linear-gradient-7)"></path></g><g id="manche_g" transform="translate(90.884 132.232)"><rect id="Rectangle_40" data-name="Rectangle 40" width="19.059" height="91.484" rx="9.53" transform="translate(5.479 20.668) rotate(-21.776)" fill="#fcc1aa"></rect><path id="Tracé_87" data-name="Tracé 87" d="M912.3,615.6a15.367,15.367,0,0,1,19.61,9.366l14.724,42.223-29.145,10.163-14.724-42.223A15.367,15.367,0,0,1,912.3,615.6Z" transform="translate(-901.911 -614.732)" fill="#596089"></path></g><g id="manche_d" transform="translate(0 132.067)"><rect id="Rectangle_41" data-name="Rectangle 41" width="19.059" height="91.484" rx="9.53" transform="translate(17.699 105.624) rotate(-158.224)" fill="#fcc1aa"></rect><path id="Tracé_88" data-name="Tracé 88" d="M600.184,614.895a15.367,15.367,0,0,0-19.61,9.366l-14.725,42.223,29.145,10.163,14.724-42.223A15.367,15.367,0,0,0,600.184,614.895Z" transform="translate(-553.453 -614.023)" fill="#596089"></path></g><g id="tshirt_marc" transform="translate(30.797 132.067)"><path id="Tracé_89" data-name="Tracé 89" d="M731.571,742.279c0,3.842-1.862,4.984-1.862,4.984L710.133,745.6,690,743.905l-1.533-.137-40.25,3.681-.664.074s-.081-2.749-.211-7.423c-.292-10.477-.844-30.605-1.366-51.081-.329-12.463-.639-25.057-.887-35.689-.317-13.978-.509-24.56-.441-27.005a11.42,11.42,0,0,1,2.768-7.2,13.12,13.12,0,0,1,9.968-4.37h61.2a7.726,7.726,0,0,1,1.576.043,9.061,9.061,0,0,1,4.208,1.626c2.222,1.576,4.37,4.618,4.99,10.47.087.732.136,1.515.155,2.334C729.957,642.655,731.571,720.171,731.571,742.279Z" transform="translate(-644.638 -614.569)" fill="#596089"></path><path id="Tracé_90" data-name="Tracé 90" d="M690.6,744.451c.621-.378.956-.794.943-1.266,46.935-41.43,16.926-104.372,33.4-128.429h3.221a7.728,7.728,0,0,1,1.576.043,9.061,9.061,0,0,1,4.208,1.626c2.222,1.576,4.37,4.618,4.99,10.47.087.732.136,1.515.155,2.334.434,13.425,2.048,90.941,2.048,113.049,0,3.842-1.862,4.984-1.862,4.984L719.71,745.6l-20.128-1.694-1.533-.136-7.448.683-32.8,3-.664.074Z" transform="translate(-654.216 -614.569)" opacity="0.44" fill="url(#linear-gradient-8)"></path><path id="Tracé_91" data-name="Tracé 91" d="M702.7,614.824c-5.915,11.315-18.831,20.364-34.273,25.038-10.024,3.035-18.415,9.267-23.331,13.537-.317-13.978-.509-24.56-.441-27.006a11.42,11.42,0,0,1,2.768-7.2,13.12,13.12,0,0,1,9.968-4.37Z" transform="translate(-644.638 -614.637)" opacity="0.73" fill="url(#radial-gradient-10)"></path><path id="Tracé_92" data-name="Tracé 92" d="M661.621,706.023l61.808-92h7.729l-62.19,92.831Z" transform="translate(-657.654 -614.023)" fill="#cf4d52"></path></g><g id="avbras_g_marc" transform="translate(126.646 219.253)"><path id="Tracé_93" data-name="Tracé 93" d="M1059.386,1054.773h0a3.264,3.264,0,0,1-3.451-3.147l-.9-55.536a9.557,9.557,0,0,1,10.269-8.728h0a9.558,9.558,0,0,1,8.728,10.269l-9.523,52.69A5.552,5.552,0,0,1,1059.386,1054.773Z" transform="translate(-1055.035 -987.33)" fill="#fcc1aa"></path></g><g id="main_g_marc" transform="translate(127.722 278.917)"><path id="Tracé_94" data-name="Tracé 94" d="M1069.845,1246.021h0a5.313,5.313,0,0,0-10.125,2.971l-.019.005s1.1,10.3,3.8,15.553,7.008,7.293,9.733,6.341,4.9-5.292,4.244-7.949S1069.845,1246.021,1069.845,1246.021Z" transform="translate(-1059.643 -1242.794)" fill="#fcc1aa"></path></g><g id="avbras_echarpe_marc" transform="translate(1.489 197.154)"><path id="Tracé_95" data-name="Tracé 95" d="M787.25,919.475v0a5.313,5.313,0,0,1-1.541-10.439l0-.019s9.816-3.311,15.717-3.056,9.558,3.31,9.833,6.184-2.755,6.663-5.442,7.182S787.25,919.475,787.25,919.475Z" transform="translate(-720.444 -902.851)" fill="#fcc1aa"></path><path id="Tracé_96" data-name="Tracé 96" d="M590.846,930.976h0a3.264,3.264,0,0,0-3.812-2.7L532.587,939.26a9.558,9.558,0,0,0-6.333,11.9h0a9.557,9.557,0,0,0,11.9,6.333l49.44-20.558A5.552,5.552,0,0,0,590.846,930.976Z" transform="translate(-524.278 -919.928)" fill="#fcc1aa"></path><path id="Tracé_97" data-name="Tracé 97" d="M529.966,896.539s57.155-14.9,65.735,14.065l.553,2.36-67.7,18.732s-9.4-.735-9.4-15.12S529.966,896.539,529.966,896.539Z" transform="translate(-519.15 -892.706)" fill="#cf4d52"></path></g><g id="cou_marc" transform="translate(64.816 110.671)"><path id="Tracé_98" data-name="Tracé 98" d="M797.935,528.4a7.663,7.663,0,0,0-7.64,7.64v8.8a40.55,40.55,0,0,0,15.28-.024v-8.775A7.663,7.663,0,0,0,797.935,528.4Z" transform="translate(-790.295 -526.999)" fill="#f7b288"></path><path id="Tracé_99" data-name="Tracé 99" d="M797.935,522.413a7.662,7.662,0,0,0-7.64,7.64v8.8a40.544,40.544,0,0,0,15.28-.024v-8.775A7.662,7.662,0,0,0,797.935,522.413Z" transform="translate(-790.295 -522.413)" opacity="0.38" fill="url(#linear-gradient)"></path><path id="Tracé_100" data-name="Tracé 100" d="M790.3,598.706v8.7a7.64,7.64,0,1,0,15.28,0v-8.727a40.55,40.55,0,0,1-15.28.024Z" transform="translate(-790.295 -580.869)" fill="#f7b288"></path></g><g id="head_marc" transform="translate(14.1 0)"><ellipse id="Ellipse_4" data-name="Ellipse 4" cx="46.065" cy="48.842" rx="46.065" ry="48.842" transform="translate(1.346 23.485) rotate(-7.523)" fill="#f7b288"></ellipse><path id="Tracé_101" data-name="Tracé 101" d="M974.864,303.593s2.556-6.434,7.3-5.852,6.668,6.122,6.912,10.2c.526,8.785-11.262,11.626-11.262,11.626Z" transform="translate(-881.042 -239.514)" fill="#f7b288"></path><path id="Tracé_102" data-name="Tracé 102" d="M586.084,352.689s-4.138-5.55-8.57-3.756-4.85,7.643-4.028,11.645c1.773,8.621,13.894,8.3,13.894,8.3Z" transform="translate(-573.146 -278.505)" fill="#f7b288"></path><g id="Groupe_13" data-name="Groupe 13" transform="translate(2.063 0)"><path id="Tracé_103" data-name="Tracé 103" d="M680.606,64.285c4.561-8.081-49.625-32.334-84.9,2.612,0,0-4.938-9.818-6.177-6.663s.171,10.073.171,10.073-7.262-1.1-7.688,1.95,3.584,4.575,4.1,4.694c.476.111-3.785,23.742,3.571,50.316l4.888,22.451a27.658,27.658,0,0,0,.625,2.872l.064.3h.02c3.611,12.66,15.794,21.213,28.844,19.489l33.606-4.438c14.38-1.9,24.546-15.569,22.59-30.378h0l-.922-18.083c-.063-2.634-.228-7.253-.65-12.75l-.019-.377h-.01c-.823-10.5-2.594-23.977-6.374-32.7C675.615,70.748,678.835,67.424,680.606,64.285Zm-5.7,45.655-1.113,7.766h0a100,100,0,0,1-20.718,8.051c-13.725-2.461-17.3,1.61-17.3,1.61-2.534-1.728-9.734.785-14.705,2.874a111.2,111.2,0,0,1-25.1-2.565l-3.992-9.313c-.081-1.608-.205-3.262-.4-4.927,0,0,7.156-9.733,6.619-31.349,0,0,29.518,21.716,63.679-.371,0,0,.416-.277,1.083-.741.9,5.884,2.37,12.608,4.573,14.75C669.59,97.714,672.484,104.022,674.906,109.94Z" transform="translate(-581.979 -48.551)" fill="#38405e"></path></g><g id="Groupe_14" data-name="Groupe 14" transform="translate(2.063 0)" opacity="0.73"><path id="Tracé_104" data-name="Tracé 104" d="M680.606,64.285c4.561-8.081-49.625-32.334-84.9,2.612,0,0-4.938-9.818-6.177-6.663s.171,10.073.171,10.073-7.262-1.1-7.688,1.95,3.584,4.575,4.1,4.694c.476.111-3.785,23.742,3.571,50.316l4.888,22.451a27.658,27.658,0,0,0,.625,2.872l.064.3h.02c3.611,12.66,15.794,21.213,28.844,19.489l33.606-4.438c14.38-1.9,24.546-15.569,22.59-30.378h0l-.922-18.083c-.063-2.634-.228-7.253-.65-12.75l-.019-.377h-.01c-.823-10.5-2.594-23.977-6.374-32.7C675.615,70.748,678.835,67.424,680.606,64.285Zm-5.7,45.655-1.113,7.766h0a100,100,0,0,1-20.718,8.051c-13.725-2.461-17.3,1.61-17.3,1.61-2.534-1.728-9.734.785-14.705,2.874a111.2,111.2,0,0,1-25.1-2.565l-3.992-9.313c-.081-1.608-.205-3.262-.4-4.927,0,0,7.156-9.733,6.619-31.349,0,0,29.518,21.716,63.679-.371,0,0,.416-.277,1.083-.741.9,5.884,2.37,12.608,4.573,14.75C669.59,97.714,672.484,104.022,674.906,109.94Z" transform="translate(-581.979 -48.551)" fill="url(#radial-gradient-11)"></path></g><g id="Groupe_15" data-name="Groupe 15" transform="translate(2.063 0)" opacity="0.58"><path id="Tracé_105" data-name="Tracé 105" d="M680.606,64.285c4.561-8.081-49.625-32.334-84.9,2.612,0,0-4.938-9.818-6.177-6.663s.171,10.073.171,10.073-7.262-1.1-7.688,1.95,3.584,4.575,4.1,4.694c.476.111-3.785,23.742,3.571,50.316l4.888,22.451a27.658,27.658,0,0,0,.625,2.872l.064.3h.02c3.611,12.66,15.794,21.213,28.844,19.489l33.606-4.438c14.38-1.9,24.546-15.569,22.59-30.378h0l-.922-18.083c-.063-2.634-.228-7.253-.65-12.75l-.019-.377h-.01c-.823-10.5-2.594-23.977-6.374-32.7C675.615,70.748,678.835,67.424,680.606,64.285Zm-5.7,45.655-1.113,7.766h0a100,100,0,0,1-20.718,8.051c-13.725-2.461-17.3,1.61-17.3,1.61-2.534-1.728-9.734.785-14.705,2.874a111.2,111.2,0,0,1-25.1-2.565l-3.992-9.313c-.081-1.608-.205-3.262-.4-4.927,0,0,7.156-9.733,6.619-31.349,0,0,29.518,21.716,63.679-.371,0,0,.416-.277,1.083-.741.9,5.884,2.37,12.608,4.573,14.75C669.59,97.714,672.484,104.022,674.906,109.94Z" transform="translate(-581.979 -48.551)" fill="url(#radial-gradient-12)"></path></g></g><g id="nez_marc" transform="translate(58.315 57.109)"><path id="Tracé_106" data-name="Tracé 106" d="M771.79,311.917a1.144,1.144,0,0,0-.512-2.229l-3.348.769c-1.789.335-2.688-.336-3.162-2.4-.25-1.088,2.115-2.814,3.428-3.237l.99-.319-2.332-10.526a1.143,1.143,0,0,0-1.364-.869l-.009,0a1.144,1.144,0,0,0-.861,1.362l1.9,8.585c-1.816.914-4.563,2.993-3.984,5.514,1,4.36,4.1,4.458,5.857,4.13Z" transform="translate(-762.46 -293.075)" fill="#d1835d"></path></g><g id="bouche_marc" transform="translate(59.327 81.593)"><rect id="Rectangle_42" data-name="Rectangle 42" width="24.218" height="16.059" rx="3.511" transform="translate(0 3.171) rotate(-7.523)" fill="#f7b288"></rect></g><g id="triste_marc" transform="translate(64.205 85.978)"><path id="Tracé_107" data-name="Tracé 107" d="M788.975,422.383a1.144,1.144,0,0,1-.57-2.2c.968-.38,9.545-3.71,12.861-3.49a1.143,1.143,0,1,1-.149,2.281c-2.391-.144-9.379,2.354-11.871,3.336A1.2,1.2,0,0,1,788.975,422.383Z" transform="translate(-787.681 -416.685)" fill="#d1835d"></path></g><g id="sourcil_marc" transform="translate(36.313 52.78)"><path id="Tracé_108" data-name="Tracé 108" d="M669.549,300.2a1.143,1.143,0,0,1-.911-1.986,17.709,17.709,0,0,1,11.768-3.832,1.142,1.142,0,0,1,1.108,1.176,1.129,1.129,0,0,1-1.176,1.108,15.742,15.742,0,0,0-10.177,3.252A1.139,1.139,0,0,1,669.549,300.2Z" transform="translate(-668.256 -289.743)" fill="#38405e"></path><path id="Tracé_109" data-name="Tracé 109" d="M854.4,278.129a1.14,1.14,0,0,1-.659-.109,15.848,15.848,0,0,0-10.675-.5,1.126,1.126,0,0,1-1.424-.765,1.141,1.141,0,0,1,.765-1.424,17.769,17.769,0,0,1,12.359.645,1.142,1.142,0,0,1-.367,2.153Z" transform="translate(-801.107 -274.539)" fill="#38405e"></path></g><g id="eyes_marc" transform="translate(41.427 56.378)"><rect id="Rectangle_43" data-name="Rectangle 43" width="3.955" height="8.148" rx="1.977" transform="matrix(0.991, -0.131, 0.131, 0.991, 0, 5.791)" fill="#3f2d28"></rect><rect id="Rectangle_44" data-name="Rectangle 44" width="3.955" height="8.148" rx="1.977" transform="translate(39.925 0.518) rotate(-7.523)" fill="#3f2d28"></rect></g></g></g></g></svg> 